<svg width="300" height="80" viewBox="0 0 300 80" xmlns="http://www.w3.org/2000/svg">
  <defs>
    <linearGradient id="quankeyGradient" x1="0%" y1="0%" x2="100%" y2="100%">
      <stop offset="0%" style="stop-color:#00A6FB" />
      <stop offset="100%" style="stop-color:#00D4FF" />
    </linearGradient>
  </defs>
  
  <!-- Logo Icon -->
  <g transform="translate(40, 40)">
    <g transform="scale(0.8)">
      <!-- Fingerprint Arcs -->
      <path d="M 0,-18 A 18,18 0 0,1 18,0" stroke="url(#quankeyGradient)" stroke-width="3.5" fill="none" stroke-linecap="round"/>
      <path d="M 0,-26 A 26,26 0 0,1 26,0" stroke="url(#quankeyGradient)" stroke-width="3" fill="none" opacity="0.75" stroke-linecap="round"/>
      <path d="M 0,-34 A 34,34 0 0,1 34,0" stroke="url(#quankeyGradient)" stroke-width="2.5" fill="none" opacity="0.5" stroke-linecap="round"/>
      
      <path d="M 0,-18 A 18,18 0 0,0 -18,0" stroke="url(#quankeyGradient)" stroke-width="3.5" fill="none" stroke-linecap="round"/>
      <path d="M 0,-26 A 26,26 0 0,0 -26,0" stroke="url(#quankeyGradient)" stroke-width="3" fill="none" opacity="0.75" stroke-linecap="round"/>
      <path d="M 0,-34 A 34,34 0 0,0 -34,0" stroke="url(#quankeyGradient)" stroke-width="2.5" fill="none" opacity="0.5" stroke-linecap="round"/>
      
      <!-- Key Element -->
      <circle cx="0" cy="0" r="6" fill="url(#quankeyGradient)"/>
      <rect x="-3" y="6" width="6" height="18" fill="url(#quankeyGradient)"/>
      <rect x="-3" y="20" width="3" height="4" fill="url(#quankeyGradient)"/>
      <rect x="1.5" y="19" width="3" height="5" fill="url(#quankeyGradient)"/>
    </g>
  </g>
  
  <!-- Wordmark -->
  <g transform="translate(100, 40)">
    <text x="0" y="10" font-family="Inter, -apple-system, BlinkMacSystemFont, sans-serif" font-size="28" font-weight="700" fill="url(#quankeyGradient)">QUANKEY</text>
    <text x="0" y="30" font-family="Inter, -apple-system, BlinkMacSystemFont, sans-serif" font-size="12" font-weight="400" fill="#8B8CA5" letter-spacing="0.1em">QUANTUM PASSWORD SECURITY</text>
  </g>
</svg>