<svg width="120" height="120" viewBox="0 0 120 120" xmlns="http://www.w3.org/2000/svg">
  <defs>
    <linearGradient id="quankeyGradient" x1="0%" y1="0%" x2="100%" y2="100%">
      <stop offset="0%" style="stop-color:#00A6FB" />
      <stop offset="100%" style="stop-color:#00D4FF" />
    </linearGradient>
  </defs>
  
  <g transform="translate(60, 58)">
    <!-- Fingerprint Arcs -->
    <path d="M 0,-18 A 18,18 0 0,1 18,0" stroke="url(#quankeyGradient)" stroke-width="3.5" fill="none" stroke-linecap="round"/>
    <path d="M 0,-26 A 26,26 0 0,1 26,0" stroke="url(#quankeyGradient)" stroke-width="3" fill="none" opacity="0.75" stroke-linecap="round"/>
    <path d="M 0,-34 A 34,34 0 0,1 34,0" stroke="url(#quankeyGradient)" stroke-width="2.5" fill="none" opacity="0.5" stroke-linecap="round"/>
    
    <path d="M 0,-18 A 18,18 0 0,0 -18,0" stroke="url(#quankeyGradient)" stroke-width="3.5" fill="none" stroke-linecap="round"/>
    <path d="M 0,-26 A 26,26 0 0,0 -26,0" stroke="url(#quankeyGradient)" stroke-width="3" fill="none" opacity="0.75" stroke-linecap="round"/>
    <path d="M 0,-34 A 34,34 0 0,0 -34,0" stroke="url(#quankeyGradient)" stroke-width="2.5" fill="none" opacity="0.5" stroke-linecap="round"/>
    
    <!-- Key Element -->
    <circle cx="0" cy="0" r="6" fill="url(#quankeyGradient)"/>
    <rect x="-3" y="6" width="6" height="18" fill="url(#quankeyGradient)"/>
    <rect x="-3" y="20" width="3" height="4" fill="url(#quankeyGradient)"/>
    <rect x="1.5" y="19" width="3" height="5" fill="url(#quankeyGradient)"/>
  </g>
</svg>